<svg xmlns="http://www.w3.org/2000/svg" xmlns:xlink="http://www.w3.org/1999/xlink" width="60" height="135" viewBox="0 0 60 135"><defs><path id="82cda" d="M1056.99 1687.91c.471-.512.924-1.035 1.413-1.531 8.165-8.295 15.124-17.185 20.717-26.721 13.876-23.66 18.6-47.024 14.083-70.04-1.25-6.368-3.279-12.42-6.386-17.988-1.003-1.797-2.037-3.573-3.442-5.116-.817-.897-1.552-1.063-2.572-.59-1.028.475-1.613 1.471-1.485 2.607.047.405.186.788.314 1.168.977 2.887 2.013 5.75 2.938 8.658 4.402 13.862 5.474 28.503 2.293 44.088-2.882 14.12-8.94 27.727-18.07 40.805-3.707 5.312-7.803 10.416-12.389 15.266-.44.465-.912.91-1.375 1.358-.04.038-.134.033-.357.082.126-.42.193-.814.367-1.19 3.412-7.393 6.053-14.87 8.342-22.384.58-1.905 1.006-3.817 1.486-5.726.141-.559.167-1.097-.115-1.567-.575-.957-2-.92-2.912.127-.32.365-.546.802-.739 1.22a59.405 59.405 0 0 0-1.175 2.735c-5.468 13.59-12.435 26.82-20.662 39.751-.333.523-.698 1.038-.982 1.572-.857 1.614-.803 3.05.139 4.283.67.877 1.664 1.286 3.005 1.164.485-.043.975-.122 1.462-.21 13.695-2.462 27.313-5.793 40.804-10.48 1.986-.69 3.952-1.489 5.905-2.304 3.078-1.284 3.715-4.63 2.641-6.071-.797-1.07-1.934-1.501-3.556-1.155-.624.132-1.246.346-1.869.534-7.533 2.283-15.042 4.727-22.622 6.69-1.66.429-3.324.833-4.985 1.249z"/></defs><g><g transform="translate(-1035 -1565)"><use fill="#183a64" xlink:href="#82cda"/></g></g></svg>