<svg xmlns="http://www.w3.org/2000/svg" xmlns:xlink="http://www.w3.org/1999/xlink" width="72" height="67" viewBox="0 0 72 67"><defs><path id="zaoca" d="M488.188 1073.251l.026-.074c.213-.55.343-1.145.343-1.77a4.89 4.89 0 0 0-.343-1.772l-.026-.071a4.9 4.9 0 0 0-1.055-1.592l-28.135-28.131a4.85 4.85 0 0 0-6.86 0 4.85 4.85 0 0 0 0 6.86l19.854 19.855h-50.14a4.854 4.854 0 0 0-4.852 4.852 4.854 4.854 0 0 0 4.852 4.852h50.14l-19.854 19.854a4.85 4.85 0 0 0 0 6.86 4.84 4.84 0 0 0 3.432 1.424 4.826 4.826 0 0 0 3.428-1.424l28.135-28.134c.45-.45.809-.99 1.055-1.589z"/></defs><g><g transform="translate(-417 -1038)"><use fill="#f3f3f1" xlink:href="#zaoca"/></g></g></svg>