<svg xmlns="http://www.w3.org/2000/svg" xmlns:xlink="http://www.w3.org/1999/xlink" width="118" height="42" viewBox="0 0 118 42"><defs><path id="znz3a" d="M143.708 17.366v4.209h-1.216c-1.224 0-2.107.276-2.624.822-.654.688-.654 1.73-.653 1.809l.004.105v4.622h4.342v4.208h-4.342v16.662h-4.209V33.141h-2.818v-4.208h2.818v-4.58c-.018-.534.01-2.939 1.782-4.828 1.343-1.432 3.261-2.16 5.7-2.16zM88.551 20.98v13.097a8.694 8.694 0 0 1 3.362-3.496c1.441-.837 3.053-1.256 4.829-1.256 1.88 0 3.58.431 5.1 1.295 1.52.862 2.71 2.074 3.574 3.632.862 1.558 1.295 3.329 1.295 5.312 0 1.984-.433 3.748-1.295 5.293a9.396 9.396 0 0 1-3.574 3.631c-1.52.877-3.22 1.315-5.1 1.315-1.803 0-3.652-.415-5.157-1.186-1.287-.66-2.43-1.744-3.468-3.338-1.163-1.784-1.497-4.324-1.497-5.395V20.98zm3.922 26.002c1.223.722 2.607 1.082 4.152 1.082s2.937-.36 4.173-1.082c1.237-.72 2.21-1.725 2.918-3.014.707-1.288 1.063-2.755 1.063-4.404 0-1.648-.356-3.116-1.063-4.405a7.738 7.738 0 0 0-2.918-3.014c-1.236-.72-2.628-1.081-4.173-1.081s-2.93.36-4.152 1.081c-1.223.723-2.191 1.726-2.898 3.014-.71 1.289-1.063 2.757-1.063 4.405 0 1.649.354 3.116 1.063 4.404.707 1.289 1.675 2.293 2.898 3.014m69.84-24.989a2.613 2.613 0 0 1 1.887-.783c.711 0 1.359.26 1.868.746.523.503.8 1.155.8 1.889a2.61 2.61 0 0 1-.782 1.886 2.609 2.609 0 0 1-1.886.782 2.66 2.66 0 0 1-1.871-.746 2.558 2.558 0 0 1-.798-1.887c0-.724.27-1.377.781-1.887M56.79 26.03v26.286c.002.031.003.077.003.138v.032c-.002.639-.132 2.599-1.576 4.137-1.198 1.276-2.953 1.923-5.217 1.923v-1.923c1.712 0 2.995-.444 3.815-1.316 1.129-1.203 1.055-2.89 1.054-2.907l-.002-.06V26.03zm88.672 12.86c0-6.02 4.895-10.916 10.913-10.916 6.018 0 10.913 4.897 10.913 10.915 0 6.018-4.895 10.914-10.913 10.914-6.018 0-10.913-4.896-10.913-10.914m4.337 0a6.583 6.583 0 0 0 6.576 6.577 6.585 6.585 0 0 0 6.578-6.577 6.585 6.585 0 0 0-6.578-6.578 6.584 6.584 0 0 0-6.576 6.578m-88.386.332c0-5.834 4.746-10.58 10.58-10.58 5.835 0 10.582 4.746 10.582 10.58 0 5.835-4.747 10.582-10.581 10.582-5.835 0-10.581-4.747-10.581-10.582m2.076 0c0 4.69 3.815 8.505 8.505 8.505 4.69 0 8.504-3.815 8.504-8.505 0-4.69-3.814-8.505-8.504-8.505-4.69 0-8.505 3.816-8.505 8.505m65.198-10.477V40.76c0 2.853-.813 5.1-2.419 6.675-1.145 1.126-2.597 1.853-4.332 2.174l-.186.034-.08.015a10.95 10.95 0 0 1-1.799.145l-.06-.002-.06.002c-.623 0-1.223-.05-1.798-.145l-.08-.015c-.063-.01-.126-.022-.188-.034-1.734-.321-3.187-1.048-4.332-2.174-1.605-1.576-2.418-3.822-2.418-6.675V28.744h4.203v11.874c0 1.74.42 3.05 1.248 3.894.795.813 1.918 1.227 3.425 1.26 1.506-.033 2.63-.447 3.426-1.26.826-.844 1.246-2.155 1.246-3.894V28.744z"/><linearGradient id="znz3b" x1="68.62" x2="144.95" y1="77.17" y2=".84" gradientUnits="userSpaceOnUse"><stop offset="0" stop-color="#734b97"/><stop offset=".13" stop-color="#6f5aa2"/><stop offset=".51" stop-color="#6681c0"/><stop offset=".81" stop-color="#619ad2"/><stop offset="1" stop-color="#5fa3d9"/></linearGradient></defs><g><g transform="translate(-50 -17)"><use fill="url(#znz3b)" xlink:href="#znz3a"/></g></g></svg>