<svg xmlns="http://www.w3.org/2000/svg" xmlns:xlink="http://www.w3.org/1999/xlink" width="48" height="88" viewBox="0 0 48 88"><defs><path id="t0wva" d="M299.167 1824.38c0-6.83 6.83-13.66 13.66-13.66 6.831 0 13.661 6.83 13.661 13.66v32.566c0 6.83-6.83 13.66-13.66 13.66s-13.66-6.83-13.66-13.66z"/><path id="t0wvb" d="M290.441 1844.062v13.428c0 12.364 10.024 22.387 22.387 22.387 12.364 0 22.387-10.023 22.387-22.387v-13.296"/><path id="t0wvc" d="M312.828 1879.877v14.062"/><path id="t0wvd" d="M321.098 1895.185h-16.054"/><path id="t0wve" d="M299.204 1830.494h6.625"/><path id="t0wvf" d="M299.204 1836.421h6.625"/><path id="t0wvg" d="M299.204 1841.651h6.625"/><path id="t0wvh" d="M319.428 1830.494h6.973"/><path id="t0wvi" d="M319.428 1836.421h6.973"/><path id="t0wvj" d="M319.428 1841.651h6.973"/></defs><g><g transform="translate(-289 -1809)"><g><use fill="#fff" fill-opacity="0" stroke="#183a64" stroke-linecap="round" stroke-linejoin="round" stroke-miterlimit="50" stroke-width="2" xlink:href="#t0wva"/></g><g><use fill="#fff" fill-opacity="0" stroke="#183a64" stroke-linecap="round" stroke-linejoin="round" stroke-miterlimit="50" stroke-width="2" xlink:href="#t0wvb"/></g><g><use fill="#fff" fill-opacity="0" stroke="#183a64" stroke-linecap="round" stroke-linejoin="round" stroke-miterlimit="50" stroke-width="2" xlink:href="#t0wvc"/></g><g><use fill="#fff" fill-opacity="0" stroke="#183a64" stroke-linecap="round" stroke-linejoin="round" stroke-miterlimit="50" stroke-width="2" xlink:href="#t0wvd"/></g><g><use fill="#fff" xlink:href="#t0wve"/><use fill="#fff" fill-opacity="0" stroke="#183a64" stroke-linecap="round" stroke-linejoin="round" stroke-miterlimit="50" stroke-width="2" xlink:href="#t0wve"/></g><g><use fill="#fff" xlink:href="#t0wvf"/><use fill="#fff" fill-opacity="0" stroke="#183a64" stroke-linecap="round" stroke-linejoin="round" stroke-miterlimit="50" stroke-width="2" xlink:href="#t0wvf"/></g><g><use fill="#fff" xlink:href="#t0wvg"/><use fill="#fff" fill-opacity="0" stroke="#183a64" stroke-linecap="round" stroke-linejoin="round" stroke-miterlimit="50" stroke-width="2" xlink:href="#t0wvg"/></g><g><use fill="#fff" xlink:href="#t0wvh"/><use fill="#fff" fill-opacity="0" stroke="#183a64" stroke-linecap="round" stroke-linejoin="round" stroke-miterlimit="50" stroke-width="2" xlink:href="#t0wvh"/></g><g><use fill="#fff" xlink:href="#t0wvi"/><use fill="#fff" fill-opacity="0" stroke="#183a64" stroke-linecap="round" stroke-linejoin="round" stroke-miterlimit="50" stroke-width="2" xlink:href="#t0wvi"/></g><g><use fill="#fff" xlink:href="#t0wvj"/><use fill="#fff" fill-opacity="0" stroke="#183a64" stroke-linecap="round" stroke-linejoin="round" stroke-miterlimit="50" stroke-width="2" xlink:href="#t0wvj"/></g></g></g></svg>