<svg xmlns="http://www.w3.org/2000/svg" xmlns:xlink="http://www.w3.org/1999/xlink" width="67" height="87" viewBox="0 0 67 87"><defs><path id="hroaa" d="M308.72 796.699c-.506 1.812-1.918 3.946-5.588 6.917-7.887 6.384-11.642 5.353-13.614 6.855-1.973 1.503-4.132 4.318-4.132 4.318"/><path id="hroab" d="M322.477 753.62c2.113-.154 4.891-.225 5.914.355 1.426.81 3.755 3.756-.658 6.666a20.286 20.286 0 0 1-5.257 2.49"/><path id="hroac" d="M322.412 792.943v.564c0 1.72-1.308 3.117-2.923 3.117h-28.643c-1.615 0-2.925-1.396-2.925-3.117v-17.842"/><path id="hroad" d="M287.92 748.561v-14.724c0-1.723 1.31-3.117 2.926-3.117h28.643c1.615 0 2.923 1.394 2.923 3.117v31.781"/><path id="hroae" d="M266.605 799.423s4.415-3.57 4.601-8.64c.188-5.07-.186-8.92 2.724-13.99 2.91-5.072 8.263-14.18 8.64-18.311.374-4.132-.753-9.107 1.502-10.235 2.253-1.127 4.318-.282 6.478 3.945 2.16 4.224 1.033 9.107-1.315 17.276-.502 1.75-1.253 4.069-1.314 6.197"/><path id="hroaf" d="M318.3 773.697c-1.14-1.492-.788-4.124.704-5.265l3.134-2.394c1.492-1.14 4.124-.788 5.264.704 1.14 1.492.789 4.124-.704 5.265l-3.133 2.394c-1.492 1.14-4.125.788-5.265-.704z"/><path id="hroag" d="M318.01 783.392c-1.14-1.492-.788-4.125.704-5.265l4.212-3.219c1.493-1.14 4.125-.788 5.265.704 1.14 1.492.788 4.125-.704 5.265l-4.212 3.219c-1.493 1.14-4.125.788-5.265-.704z"/><path id="hroah" d="M320.322 791.291c-1.14-1.492-.788-4.124.704-5.265l1.525-1.165c1.492-1.14 4.124-.788 5.265.704 1.14 1.493.788 4.125-.704 5.265l-1.525 1.165c-1.493 1.14-4.125.789-5.265-.704z"/><path id="hroai" d="M314.438 762.766l-11.658-8.131c-1.027-.716-2.433.018-2.433 1.27v16.26c0 1.251 1.406 1.986 2.433 1.27l11.658-8.13a1.548 1.548 0 0 0 0-2.54z"/></defs><g><g transform="translate(-265 -729)"><g><use fill="#fff" xlink:href="#hroaa"/><use fill="#fff" fill-opacity="0" stroke="#183a64" stroke-linecap="round" stroke-linejoin="round" stroke-miterlimit="50" stroke-width="2" xlink:href="#hroaa"/></g><g><use fill="#fff" xlink:href="#hroab"/><use fill="#fff" fill-opacity="0" stroke="#183a64" stroke-linecap="round" stroke-linejoin="round" stroke-miterlimit="50" stroke-width="2" xlink:href="#hroab"/></g><g><use fill="#fff" fill-opacity="0" stroke="#183a64" stroke-linecap="round" stroke-miterlimit="50" stroke-width="2" xlink:href="#hroac"/></g><g><use fill="#fff" fill-opacity="0" stroke="#183a64" stroke-linecap="round" stroke-miterlimit="50" stroke-width="2" xlink:href="#hroad"/></g><g><use fill="#fff" fill-opacity="0" stroke="#183a64" stroke-linecap="round" stroke-linejoin="round" stroke-miterlimit="50" stroke-width="2" xlink:href="#hroae"/></g><g><use fill="#fff" fill-opacity="0" stroke="#183a64" stroke-linecap="round" stroke-linejoin="round" stroke-miterlimit="50" stroke-width="2" xlink:href="#hroaf"/></g><g><use fill="#fff" fill-opacity="0" stroke="#183a64" stroke-linecap="round" stroke-linejoin="round" stroke-miterlimit="50" stroke-width="2" xlink:href="#hroag"/></g><g><use fill="#fff" fill-opacity="0" stroke="#183a64" stroke-linecap="round" stroke-linejoin="round" stroke-miterlimit="50" stroke-width="2" xlink:href="#hroah"/></g><g><use fill="#fff" fill-opacity="0" stroke="#183a64" stroke-linecap="round" stroke-linejoin="round" stroke-miterlimit="50" stroke-width="2" xlink:href="#hroai"/></g></g></g></svg>