<svg xmlns="http://www.w3.org/2000/svg" xmlns:xlink="http://www.w3.org/1999/xlink" width="102" height="133" viewBox="0 0 102 133"><defs><path id="g0tka" d="M295.896 1038.499c0-4.075 3.313-7.386 7.387-7.386 4.072 0 7.386 3.311 7.386 7.386 0 4.073-3.314 7.385-7.386 7.385-4.074 0-7.387-3.312-7.387-7.385zm10.96 9.47c3.827-1.447 6.561-5.14 6.561-9.47 0-5.59-4.546-10.135-10.134-10.135-5.59 0-10.136 4.545-10.136 10.135 0 4.33 2.732 8.023 6.56 9.47-6.577 1.613-11.48 7.542-11.48 14.61a1.375 1.375 0 0 0 2.748 0c0-6.786 5.522-12.306 12.308-12.306 6.784 0 12.304 5.52 12.304 12.306a1.375 1.375 0 0 0 2.75 0c0-7.068-4.903-12.999-11.48-14.61z"/><path id="g0tkc" d="M337.6 1089.073a4.412 4.412 0 0 1-1.706 2.943l-6.527 4.99a4.46 4.46 0 0 1-6.235-.833 4.423 4.423 0 0 1-.874-3.29 4.422 4.422 0 0 1 1.708-2.945l6.528-4.988a4.426 4.426 0 0 1 2.694-.91c1.34 0 2.666.6 3.54 1.744.72.942 1.03 2.11.873 3.29zm-1.456 12.136a4.452 4.452 0 0 1-.832 6.234l-2.362 1.806a4.454 4.454 0 0 1-6.235-.834 4.42 4.42 0 0 1-.874-3.29 4.42 4.42 0 0 1 1.708-2.943l2.364-1.806c.782-.599 1.72-.914 2.69-.914a4.414 4.414 0 0 1 3.54 1.747zm-8.654 11.472c0 1.908-1.418 3.456-3.16 3.456h-44.39c-1.742 0-3.158-1.548-3.158-3.456v-27.62c.082-2.745.98-5.818 1.704-8.29l.28-.964c3.614-12.576 5.548-20.721 1.941-27.783-.641-1.251-1.94-3.79-3.925-5.578v-22.24c0-1.906 1.416-3.457 3.157-3.457h44.392c1.74 0 3.159 1.55 3.159 3.456v48.902l-4.744 3.623c-3.153 2.408-3.757 6.935-1.348 10.086 1.003 1.313 2.405 2.189 3.984 2.581l-3.085 2.358a7.146 7.146 0 0 0-2.764 4.764 7.152 7.152 0 0 0 1.415 5.321c1.117 1.465 2.697 2.355 4.38 2.672-1.197 1.127-1.99 2.597-2.212 4.248a7.15 7.15 0 0 0 1.416 5.324c.794 1.038 1.83 1.769 2.958 2.238zm9.96-60.07c.876.499 2.2 1.815 2.253 3.408.064 1.918-1.785 3.551-3.349 4.583a30.458 30.458 0 0 1-6.115 3.11v-11.551c5.38-.312 6.872.256 7.211.45zm-5.483 17.681c1.338 0 2.665.6 3.537 1.744a4.454 4.454 0 0 1-.834 6.234l-4.856 3.711a4.465 4.465 0 0 1-3.288.874 4.412 4.412 0 0 1-2.943-1.708 4.453 4.453 0 0 1 .832-6.234l4.856-3.71a4.428 4.428 0 0 1 2.696-.91zm2.956 11.244l1.417-1.081c3.152-2.41 3.757-6.935 1.349-10.087-1.793-2.348-4.754-3.277-7.45-2.61v-1.141a32.928 32.928 0 0 0 7.63-3.722c3.893-2.57 4.64-5.207 4.58-6.968-.084-2.562-1.89-4.712-3.64-5.707-.527-.299-2.064-1.175-8.57-.814v-29.2c0-3.424-2.652-6.206-5.908-6.206h-44.392c-3.256 0-5.906 2.782-5.906 6.205v20.587c-1.496-.499-3.224-.476-5.207.516-3.185 1.592-3.091 6.161-2.992 11 .04 1.995.084 4.059-.09 5.97-.524 5.762-7.998 18.751-12.464 26.515l-.747 1.302c-4.049 7.05-4.173 12.638-4.314 19.109-.024 1.039-.048 2.104-.088 3.207-.264 7.118-6.56 12.32-6.623 12.37a1.377 1.377 0 0 0 .866 2.443c.305 0 .609-.099.864-.306.298-.24 7.328-6.018 7.64-14.406.04-1.116.066-2.196.088-3.246.139-6.346.25-11.36 3.95-17.804l.747-1.299c4.874-8.47 12.24-21.275 12.819-27.636.187-2.063.143-4.205.1-6.276-.076-3.77-.157-7.668 1.474-8.483 1.393-.694 4.294-2.142 8.203 5.508 3.04 5.95 1.609 12.743-2.135 25.772l-.277.951c-.768 2.625-1.724 5.892-1.814 8.993l.003.018-.003.022v27.65c0 3.422 2.65 6.204 5.906 6.204h25.74c-1.214 2.52-3.65 5.23-7.56 8.396-8.047 6.512-13.219 7.9-16.64 8.818-1.804.482-3.228.863-4.43 1.78-3.166 2.413-6.52 6.767-6.661 6.95a1.373 1.373 0 0 0 .254 1.927 1.373 1.373 0 0 0 1.926-.253c.034-.043 3.27-4.245 6.147-6.437.772-.587 1.906-.892 3.475-1.313 3.647-.978 9.157-2.454 17.657-9.336 4.796-3.881 7.61-7.253 8.813-10.532h15.67c3.186 0 5.773-2.666 5.887-5.984l.04.006a7.167 7.167 0 0 0 4.36-1.475l2.364-1.807c3.152-2.408 3.757-6.935 1.347-10.085-1.064-1.396-2.58-2.305-4.284-2.651l3.52-2.689a7.151 7.151 0 0 0 2.762-4.763 7.144 7.144 0 0 0-1.415-5.322c-1.03-1.35-2.456-2.2-3.988-2.58z"/><path id="g0tke" d="M314.621 1077.25h-27.863a1.375 1.375 0 0 0 0 2.748h27.863a1.374 1.374 0 1 0 0-2.749z"/><path id="g0tkg" d="M286.758 1091.94h16.525a1.375 1.375 0 0 0 0-2.75h-16.525a1.375 1.375 0 0 0 0 2.75z"/><path id="g0tki" d="M314.621 1100.734h-27.863a1.375 1.375 0 0 0 0 2.749h27.863a1.375 1.375 0 0 0 0-2.749z"/><linearGradient id="g0tkb" x1="336.89" x2="238.67" y1="1007.89" y2="1137.75" gradientUnits="userSpaceOnUse"><stop offset="0" stop-color="#734b97"/><stop offset=".13" stop-color="#6f5aa2"/><stop offset=".51" stop-color="#6681c0"/><stop offset=".81" stop-color="#619ad2"/><stop offset="1" stop-color="#5fa3d9"/></linearGradient><linearGradient id="g0tkd" x1="343.94" x2="245.73" y1="1013.24" y2="1143.09" gradientUnits="userSpaceOnUse"><stop offset="0" stop-color="#734b97"/><stop offset=".13" stop-color="#6f5aa2"/><stop offset=".51" stop-color="#6681c0"/><stop offset=".81" stop-color="#619ad2"/><stop offset="1" stop-color="#5fa3d9"/></linearGradient><linearGradient id="g0tkf" x1="347.9" x2="249.66" y1="1016.2" y2="1146.11" gradientUnits="userSpaceOnUse"><stop offset="0" stop-color="#734b97"/><stop offset=".13" stop-color="#6f5aa2"/><stop offset=".51" stop-color="#6681c0"/><stop offset=".81" stop-color="#619ad2"/><stop offset="1" stop-color="#5fa3d9"/></linearGradient><linearGradient id="g0tkh" x1="350.04" x2="251.8" y1="1017.81" y2="1147.72" gradientUnits="userSpaceOnUse"><stop offset="0" stop-color="#734b97"/><stop offset=".13" stop-color="#6f5aa2"/><stop offset=".51" stop-color="#6681c0"/><stop offset=".81" stop-color="#619ad2"/><stop offset="1" stop-color="#5fa3d9"/></linearGradient><linearGradient id="g0tkj" x1="359.2" x2="260.96" y1="1024.73" y2="1154.64" gradientUnits="userSpaceOnUse"><stop offset="0" stop-color="#734b97"/><stop offset=".13" stop-color="#6f5aa2"/><stop offset=".51" stop-color="#6681c0"/><stop offset=".81" stop-color="#619ad2"/><stop offset="1" stop-color="#5fa3d9"/></linearGradient></defs><g><g transform="translate(-241 -1014)"><g><use fill="url(#g0tkb)" xlink:href="#g0tka"/></g><g><use fill="url(#g0tkd)" xlink:href="#g0tkc"/></g><g><use fill="url(#g0tkf)" xlink:href="#g0tke"/></g><g><use fill="url(#g0tkh)" xlink:href="#g0tkg"/></g><g><use fill="url(#g0tkj)" xlink:href="#g0tki"/></g></g></g></svg>