<svg xmlns="http://www.w3.org/2000/svg" xmlns:xlink="http://www.w3.org/1999/xlink" width="102" height="133" viewBox="0 0 102 133"><defs><path id="5qnza" d="M1047.44 1092.018l-6.53 4.986a4.43 4.43 0 0 1-3.29.874 4.42 4.42 0 0 1-2.943-1.708 4.452 4.452 0 0 1 .834-6.232l6.53-4.989a4.42 4.42 0 0 1 3.287-.874 4.42 4.42 0 0 1 2.944 1.706 4.457 4.457 0 0 1-.834 6.237zm.25 9.19a4.454 4.454 0 0 1-.833 6.235l-2.364 1.805a4.424 4.424 0 0 1-3.288.874 4.419 4.419 0 0 1-2.945-1.708 4.422 4.422 0 0 1-.874-3.29 4.421 4.421 0 0 1 1.708-2.942l2.364-1.807a4.415 4.415 0 0 1 3.288-.873 4.424 4.424 0 0 1 2.945 1.707zm-8.657 11.474c0 1.906-1.416 3.457-3.157 3.457h-44.392c-1.74 0-3.157-1.55-3.157-3.457v-27.618c.082-2.748.982-5.827 1.706-8.301l.279-.957c3.614-12.575 5.547-20.723 1.94-27.782-.641-1.252-1.939-3.79-3.925-5.58v-22.24c0-1.907 1.417-3.455 3.157-3.455h44.392c1.74 0 3.157 1.548 3.157 3.454v48.901l-4.74 3.625a7.143 7.143 0 0 0-2.766 4.764 7.143 7.143 0 0 0 1.417 5.321 7.13 7.13 0 0 0 3.97 2.593l-3.072 2.348c-3.153 2.408-3.757 6.932-1.35 10.085 1.086 1.42 2.636 2.342 4.379 2.674-1.195 1.127-1.988 2.597-2.21 4.248a7.15 7.15 0 0 0 1.415 5.32c.778 1.02 1.805 1.768 2.957 2.249zm1.784-41.48a4.426 4.426 0 0 1 2.694-.912c1.34 0 2.664.602 3.538 1.745a4.413 4.413 0 0 1 .874 3.29 4.417 4.417 0 0 1-1.706 2.945h-.002l-4.856 3.71a4.452 4.452 0 0 1-6.233-.834 4.42 4.42 0 0 1-.874-3.289 4.416 4.416 0 0 1 1.708-2.943zm.965-19.043c5.38-.314 6.875.261 7.213.452.877.496 2.2 1.814 2.253 3.407.064 1.919-1.785 3.552-3.35 4.582a30.33 30.33 0 0 1-6.116 3.111zm7.327 42.042c3.15-2.409 3.755-6.933 1.347-10.087-1.002-1.314-2.404-2.19-3.986-2.58l1.415-1.082a7.132 7.132 0 0 0 2.763-4.761 7.147 7.147 0 0 0-1.414-5.324c-1.79-2.345-4.752-3.273-7.452-2.607v-1.142a32.936 32.936 0 0 0 7.631-3.724c3.895-2.568 4.642-5.206 4.584-6.97-.086-2.56-1.893-4.711-3.645-5.704-.528-.301-2.064-1.171-8.57-.814v-29.203c0-3.421-2.65-6.203-5.906-6.203h-44.392c-3.256 0-5.906 2.782-5.906 6.203v20.59c-1.495-.5-3.224-.475-5.207.516-3.186 1.593-3.091 6.162-2.992 10.998.04 1.996.084 4.06-.09 5.97-.524 5.764-8.001 18.76-12.467 26.522l-.744 1.296c-4.049 7.052-4.173 12.639-4.314 19.108-.024 1.04-.048 2.104-.088 3.207-.264 7.118-6.56 12.321-6.623 12.37a1.377 1.377 0 0 0 .867 2.443c.304 0 .608-.1.863-.305.298-.242 7.328-6.019 7.64-14.407.04-1.117.064-2.195.088-3.247.14-6.345.251-11.357 3.95-17.802l.743-1.292c4.877-8.474 12.244-21.28 12.823-27.645.187-2.064.143-4.206.099-6.275-.077-3.77-.158-7.666 1.475-8.481 1.393-.699 4.289-2.146 8.203 5.507 3.04 5.952 1.61 12.742-2.135 25.772l-.275.944c-.768 2.626-1.724 5.897-1.816 9l.004.02-.004.02v27.65c0 3.422 2.65 6.206 5.906 6.206h25.738c-1.214 2.52-3.649 5.228-7.56 8.393-8.047 6.515-13.217 7.902-16.638 8.819-1.803.482-3.227.862-4.43 1.779-3.166 2.414-6.52 6.77-6.661 6.953a1.375 1.375 0 1 0 2.18 1.671c.034-.04 3.276-4.25 6.147-6.436.772-.59 1.904-.894 3.475-1.312 3.645-.977 9.157-2.456 17.657-9.337 4.794-3.88 7.61-7.252 8.811-10.53h15.673c3.183 0 5.769-2.665 5.886-5.98l.048.003a7.13 7.13 0 0 0 4.352-1.478l2.364-1.807c3.152-2.408 3.757-6.933 1.35-10.085-1.067-1.397-2.583-2.306-4.287-2.652l3.518-2.688z"/><path id="5qnzc" d="M1024.8 1076.59c-.006.028-.019.12-.134.162-.112.04-.184-.02-.207-.04l-7.945-6.917a1.373 1.373 0 0 0-1.788-.014l-3.006 2.534.601-4.8 15.204-14.411a1.374 1.374 0 0 0-1.666-2.166l-19.814 12.208a1.377 1.377 0 0 0-.633 1.406l.097.552-.612-.927a1.386 1.386 0 0 0-.672-.533l-5.245-1.929 30.366-12.404zm-14.727-10.733c-.231.22-.38.512-.418.829l-.451 3.595-.924-5.281 7.716-4.754zm21.894-19.823a1.378 1.378 0 0 0-1.378-.198l-34.008 13.89a2.166 2.166 0 0 0-1.356 2.054 2.165 2.165 0 0 0 1.426 2.007l6.201 2.283 4 6.066a1.38 1.38 0 0 0 2.09.245l-.385 3.08c-.07.56.21 1.108.707 1.379a1.385 1.385 0 0 0 1.543-.158l4.791-4.04 7.055 6.142a2.959 2.959 0 0 0 2.942.554 2.958 2.958 0 0 0 1.917-2.296l4.951-29.708a1.373 1.373 0 0 0-.496-1.3z"/><linearGradient id="5qnzb" x1="1046.45" x2="965.85" y1="1014.48" y2="1151.79" gradientUnits="userSpaceOnUse"><stop offset="0" stop-color="#734b97"/><stop offset=".13" stop-color="#6f5aa2"/><stop offset=".51" stop-color="#6681c0"/><stop offset=".81" stop-color="#619ad2"/><stop offset="1" stop-color="#5fa3d9"/></linearGradient><linearGradient id="5qnzd" x1="1044.28" x2="963.68" y1="1013.2" y2="1150.53" gradientUnits="userSpaceOnUse"><stop offset="0" stop-color="#734b97"/><stop offset=".13" stop-color="#6f5aa2"/><stop offset=".51" stop-color="#6681c0"/><stop offset=".81" stop-color="#619ad2"/><stop offset="1" stop-color="#5fa3d9"/></linearGradient></defs><g><g transform="translate(-952 -1014)"><g><use fill="url(#5qnzb)" xlink:href="#5qnza"/></g><g><use fill="url(#5qnzd)" xlink:href="#5qnzc"/></g></g></g></svg>